<?xml version="1.0" encoding="UTF-8" standalone="no"?><svg xmlns="http://www.w3.org/2000/svg" xmlns:xlink="http://www.w3.org/1999/xlink" fill="#000000" height="170" preserveAspectRatio="xMidYMid meet" version="1" viewBox="0.0 0.0 165.5 170.0" width="165.5" zoomAndPan="magnify"><g fill="#38b6ff"><g id="change1_2"><path d="M154.6,170H10.8C4.8,170,0,165.1,0,159.2V10.8C0,4.8,4.8,0,10.8,0h143.9c6,0,10.8,4.8,10.8,10.8v148.4 C165.4,165.1,160.6,170,154.6,170z M10.8,3.2c-4.2,0-7.5,3.4-7.5,7.5v148.4c0,4.2,3.4,7.5,7.5,7.5h143.9c4.2,0,7.5-3.4,7.5-7.5 V10.8c0-4.2-3.4-7.5-7.5-7.5H10.8z"/></g><g id="change1_3"><path d="M163.8,42.7H4.3c-0.9,0-1.6-0.7-1.6-1.6s0.7-1.6,1.6-1.6h159.5c0.9,0,1.6,0.7,1.6,1.6S164.7,42.7,163.8,42.7z"/></g><g id="change1_4"><path d="M138.9,144.3H26.5c-0.9,0-1.6-0.7-1.6-1.6V75c0-0.9,0.7-1.6,1.6-1.6h112.4c0.9,0,1.6,0.7,1.6,1.6v67.6 C140.5,143.6,139.8,144.3,138.9,144.3z M28.2,141h109.1V76.6H28.2V141z"/></g><g id="change1_5"><path d="M64.2,142.7c-0.9,0-1.6-0.7-1.6-1.6V76.6c0-0.9,0.7-1.6,1.6-1.6s1.6,0.7,1.6,1.6v64.6 C65.8,142,65.1,142.7,64.2,142.7z"/></g><g id="change1_6"><path d="M101.2,142.7c-0.9,0-1.6-0.7-1.6-1.6V76.6c0-0.9,0.7-1.6,1.6-1.6s1.6,0.7,1.6,1.6v64.6 C102.9,142,102.1,142.7,101.2,142.7z"/></g><g id="change1_7"><path d="M138.1,110.5H27.3c-0.9,0-1.6-0.7-1.6-1.6s0.7-1.6,1.6-1.6h110.9c0.9,0,1.6,0.7,1.6,1.6S139,110.5,138.1,110.5 z"/></g><g id="change1_1"><path d="M46.1,58.3c-0.9,0-1.6-0.7-1.6-1.6V25.4c0-0.9,0.7-1.6,1.6-1.6s1.6,0.7,1.6,1.6v31.2 C47.7,57.5,47,58.3,46.1,58.3z"/><path d="M122.1,58.3c-0.9,0-1.6-0.7-1.6-1.6V25.4c0-0.9,0.7-1.6,1.6-1.6s1.6,0.7,1.6,1.6v31.2 C123.7,57.5,123,58.3,122.1,58.3z"/></g></g></svg>