<?xml version="1.0" encoding="UTF-8" standalone="no"?><svg xmlns="http://www.w3.org/2000/svg" xmlns:xlink="http://www.w3.org/1999/xlink" fill="#000000" height="189.6" preserveAspectRatio="xMidYMid meet" version="1" viewBox="-0.6 0.0 207.2 189.6" width="207.2" zoomAndPan="magnify"><g fill="#38b6ff" id="change1_1"><path d="M194.5,189.6h-183c-3.7,0-7.1-1.7-9.3-4.8c-2.2-3-2.8-6.8-1.6-10.4l22.7-67.7c1.6-4.7,5.9-7.8,10.9-7.8h40.7 c0.9,0,1.6,0.7,1.6,1.6s-0.7,1.6-1.6,1.6H34.2c-3.5,0-6.7,2.3-7.8,5.6L3.7,175.5c-0.9,2.5-0.4,5.3,1.1,7.4c1.6,2.2,4,3.4,6.7,3.4 h183c2.7,0,5.1-1.2,6.7-3.4c1.6-2.2,2-4.9,1.1-7.4l-22.7-67.7c-1.1-3.4-4.3-5.6-7.8-5.6h-41c-0.9,0-1.6-0.7-1.6-1.6 s0.7-1.6,1.6-1.6h41c4.9,0,9.3,3.1,10.9,7.8l22.7,67.7c1.2,3.5,0.6,7.3-1.6,10.4C201.6,187.8,198.2,189.6,194.5,189.6z"/><path d="M103,143.8c-0.5,0-1-0.2-1.3-0.7c-2-2.7-48.5-66.4-48.5-93.3C53.1,22.4,75.5,0,103,0s49.8,22.4,49.8,49.8 c0,26.8-46.5,90.6-48.5,93.3C104,143.5,103.5,143.8,103,143.8z M103,3.2c-25.7,0-46.6,20.9-46.6,46.6c0,23.4,38.9,78.8,46.6,89.5 c7.7-10.7,46.6-66.2,46.6-89.5C149.6,24.1,128.7,3.2,103,3.2z"/><path d="M103,78c-15.5,0-28.1-12.6-28.1-28.1c0-15.5,12.6-28.1,28.1-28.1s28.1,12.6,28.1,28.1 C131.1,65.3,118.5,78,103,78z M103,24.9c-13.7,0-24.9,11.2-24.9,24.9c0,13.7,11.2,24.9,24.9,24.9s24.9-11.2,24.9-24.9 C127.9,36.1,116.7,24.9,103,24.9z"/></g></svg>