<?xml version="1.0" encoding="UTF-8" standalone="no"?><svg xmlns="http://www.w3.org/2000/svg" xmlns:xlink="http://www.w3.org/1999/xlink" fill="#b44672" height="77.3" preserveAspectRatio="xMidYMid meet" version="1" viewBox="-1.3 -0.0 78.6 77.3" width="78.6" zoomAndPan="magnify"><g data-name="25" id="change1_1"><path d="M56.137,36.906c-.318-.68-.616-1.369-.911-2.027,2.829-2.158,3.62-4.45,2.486-7s-3.4-3.449-7.114-2.763c-.887-1.875-1.786-3.768-2.679-5.664-1.753-3.722-3.473-7.459-5.265-11.162a3.983,3.983,0,0,0-7.573,1.969c.595,3.834-.631,7.2-2.56,10.363a32.228,32.228,0,0,1-11.85,11.3c-4.4,2.494-9.035,4.594-13.6,6.8C1.29,41.505-1.335,47.483.663,53.3A11.607,11.607,0,0,0,14.771,60.6c.744-.229,1.11.03,1.488.642,1.106,1.793,2.274,3.548,3.416,5.319,1.791,2.777,3.566,5.565,5.377,8.328A4.392,4.392,0,0,0,29.77,76.93,3.986,3.986,0,0,0,33.3,73.6a7.166,7.166,0,0,0-.53-3.708c-1.477-3.46-3.16-6.831-4.758-10.227,4.17-2.334,4.57-3.013,3.7-6.226a2.154,2.154,0,0,1,.472-.274,35.015,35.015,0,0,1,14.9-1.481,15.6,15.6,0,0,1,9.25,4.2c1.736,1.752,3.811,2.056,5.535.832,1.689-1.2,2.083-3.188,1.05-5.393Q59.529,44.112,56.137,36.906ZM55.1,28.924c.607,1.2.28,2.22-1.171,3.268l-2.04-4.325C53.518,27.421,54.521,27.789,55.1,28.924ZM13.424,57.968A8.406,8.406,0,0,1,3.5,52.821a8.6,8.6,0,0,1,3.313-10.71c2.486-1.483,5.2-2.59,7.956-3.939,2.541,5.4,5.016,10.65,7.584,16.1A83.779,83.779,0,0,1,13.424,57.968ZM30.283,71.119c.65,1.385.486,2.415-.527,2.865-1.173.521-1.974-.011-2.625-1.03-2.9-4.547-5.839-9.073-8.843-13.73l5.157-2.44c.206.361.409.668.564,1Q27.153,64.447,30.283,71.119ZM26.762,56.9c-.2-.4-.412-.8-.7-1.373l2.682-1.19C29.542,55.875,29.354,56.1,26.762,56.9Zm33.883-2.976a.983.983,0,0,1-.454.492c-.589-.138-1.367-.084-1.737-.446a18.42,18.42,0,0,0-10.18-4.909c-6.6-1.1-12.96.011-19.188,2.183-1.389.485-2.745,1.066-4.264,1.661-2.523-5.364-4.978-10.583-7.3-15.513,3.572-2.488,7.179-4.687,10.42-7.333,4.677-3.819,8.327-8.485,9.673-14.559a20.972,20.972,0,0,0,.348-4.554c0-.836-.283-1.727.738-2.054,1.157-.371,1.425.633,1.788,1.4Q46.11,22.24,51.727,34.18q4.184,8.89,8.372,17.778c.1.221.173.36.288.649C60.765,53.562,60.679,53.836,60.645,53.926Zm-10-47.275a1.681,1.681,0,0,1,.15-1.68c.936-1.4,1.886-2.8,2.849-4.169A1.8,1.8,0,0,1,55.152,0a1.844,1.844,0,0,1,1.523.911l.113.168-.048.2c-.015.107-.031.215-.042.331a2.254,2.254,0,0,1-.28.966c-.95,1.464-1.96,2.922-2.918,4.279a1.717,1.717,0,0,1-.672.588,1.62,1.62,0,0,1-1.647-.153A1.69,1.69,0,0,1,50.641,6.651ZM76.692,49.18l-.12.162-.2.022c-.106.021-.212.043-.325.071a2.264,2.264,0,0,1-1,.058c-1.7-.408-3.409-.872-5.008-1.323a1.714,1.714,0,0,1-.778-.437,1.62,1.62,0,0,1-.405-1.6A1.656,1.656,0,0,1,70.9,44.987c1.634.415,3.268.844,4.881,1.295a1.8,1.8,0,0,1,1.26,1.158A1.844,1.844,0,0,1,76.692,49.18Zm-6.13-26.945c-1.47.942-2.991,1.855-4.423,2.7a1.719,1.719,0,0,1-.855.258,1.62,1.62,0,0,1-1.438-.819,1.658,1.658,0,0,1,.6-2.273c1.432-.891,2.873-1.773,4.315-2.624a1.8,1.8,0,0,1,1.708-.107,1.847,1.847,0,0,1,1.012,1.459l.034.2-.127.163c-.058.091-.116.182-.174.283A2.252,2.252,0,0,1,70.562,22.235Z"/></g></svg>